<svg xmlns="http://www.w3.org/2000/svg" viewBox="0 0 64 64" fill="none" role="img" aria-label="Keymint">
  <defs>
    <linearGradient id="kg" x1="8" y1="6" x2="56" y2="58" gradientUnits="userSpaceOnUse">
      <stop stop-color="#22d3ee"/>
      <stop offset="0.5" stop-color="#818cf8"/>
      <stop offset="1" stop-color="#e879f9"/>
    </linearGradient>
    <linearGradient id="fill" x1="20" y1="16" x2="44" y2="52" gradientUnits="userSpaceOnUse">
      <stop stop-color="#22d3ee" stop-opacity="0.35"/>
      <stop offset="1" stop-color="#e879f9" stop-opacity="0.15"/>
    </linearGradient>
    <filter id="glow" x="-20%" y="-20%" width="140%" height="140%">
      <feGaussianBlur stdDeviation="1.3" result="b"/>
      <feMerge>
        <feMergeNode in="b"/>
        <feMergeNode in="SourceGraphic"/>
      </feMerge>
    </filter>
  </defs>
  <!-- Mint hex (coin die) -->
  <path d="M32 6 52 17.5v29L32 58 12 46.5v-29L32 6z" stroke="url(#kg)" stroke-width="1.5" filter="url(#glow)"/>
  <path d="M32 12 46 20.5v23L32 52 18 43.5v-23L32 12z" fill="url(#fill)" stroke="url(#kg)" stroke-width="1" opacity=".5"/>
  <!-- Key -->
  <circle cx="32" cy="22" r="7" stroke="url(#kg)" stroke-width="2.2" fill="rgba(12,16,28,0.6)"/>
  <circle cx="32" cy="22" r="2.5" fill="url(#kg)" opacity=".9"/>
  <path d="M32 29v16" stroke="url(#kg)" stroke-width="2.8" stroke-linecap="round"/>
  <path d="M32 38h9" stroke="url(#kg)" stroke-width="2.8" stroke-linecap="round"/>
  <path d="M32 44h6" stroke="url(#kg)" stroke-width="2.8" stroke-linecap="round"/>
  <!-- Mint sparkles -->
  <circle cx="14" cy="20" r="1.8" fill="#22d3ee" opacity=".9"/>
  <circle cx="50" cy="20" r="1.8" fill="#e879f9" opacity=".9"/>
  <circle cx="32" cy="54" r="1.8" fill="#818cf8" opacity=".9"/>
  <path d="M14 20v4M50 20v4M32 54h4" stroke="url(#kg)" stroke-width="1" stroke-linecap="round" opacity=".4"/>
</svg>
